<?xml version="1.0" encoding="utf-8"?>
<?xml-stylesheet type="text/css" href="nyc.css"?>
<!DOCTYPE svg PUBLIC "-//W3C//DTD SVG 1.1//EN" "http://www.w3.org/Graphics/SVG/1.1/DTD/svg11.dtd">
<svg version="1.1" id="nyc" xmlns="http://www.w3.org/2000/svg" xmlns:xlink="http://www.w3.org/1999/xlink" x="0px" y="0px"
	 width="400px" height="300px" viewBox="0 0 400 300" enable-background="new 0 0 400 300" xml:space="preserve">

<rect id="bg" fill="#0000FF" width="400" height="300"/>

<polygon id="skyline" fill-rule="evenodd" clip-rule="evenodd" fill="#0000BF" points="388.646,113.363 388.646,101.921 
	383.907,101.921 381.352,93.423 379.308,101.921 374.259,101.921 374.259,121.535 370.331,125.486 370.331,133.829 364.187,133.829 
	364.187,166.387 361.171,166.379 350.034,151.772 337.072,151.772 337.072,142.783 318.762,142.783 318.762,90.312 298.255,90.312 
	298.255,127.255 293.372,127.255 293.372,122.352 289.467,122.352 289.467,141.697 286.537,144.689 286.537,148.953 
	283.557,148.953 283.557,154.224 264.819,154.224 264.819,151.061 261.891,147.765 261.891,69.443 258.285,68.222 252.509,68.222 
	252.509,63.882 250.834,63.882 250.834,68.222 244.398,68.222 241.384,69.662 241.384,146.337 237.478,150.401 237.478,159.19 
	235.887,159.19 235.887,163.618 232.272,163.618 232.272,168.116 227.713,168.116 227.713,92.932 213.066,92.932 213.066,107.642 
	210.136,107.642 210.136,127.255 203.301,127.255 203.301,150.955 193.536,150.955 193.536,119.083 185.158,119.083 
	177.913,134.145 177.913,154.466 174.529,154.466 174.529,158.31 169.124,158.31 169.124,146.052 165.218,146.052 165.218,141.148 
	163.266,141.148 163.266,123.986 156.43,123.986 156.43,114.18 152.421,114.18 146.945,106.17 141.469,114.18 136.9,114.18 
	136.9,137.879 133.971,137.879 133.971,133.968 129.128,131.136 124.206,134.145 124.206,137.879 117.371,137.879 117.371,78.222 
	115.417,78.222 115.417,68.416 101.747,68.416 101.747,76.587 97.841,76.587 97.841,111.728 92.958,111.728 92.958,132.976 
	87.1,132.976 87.1,139.514 76.358,139.514 76.358,163.214 70.5,163.214 70.5,139.514 66.594,139.514 66.594,83.749 64.641,83.749 
	64.641,64.136 57.805,64.136 57.805,46.156 52.99,46.156 52.99,32.765 50.527,32.765 50.527,46.156 46.087,46.156 46.087,64.136 
	40.229,64.136 40.229,82.932 37.299,82.932 37.299,137.062 33.393,137.062 33.393,156.677 29.045,156.677 29.045,150.132 
	15.816,128.073 15.816,85.577 13.214,85.577 10.927,80.673 0,80.673 0,300 400,300 400,113.363 "/>

<g id="nycType">
	<g id="N">
		<g>
			<path fill="none" stroke="#F15A24" stroke-width="4" stroke-linecap="round" stroke-linejoin="round" stroke-miterlimit="10" d="
				M40,203h7.063c0.971,0,1.937-0.603,1.937-1.573V98.572c0-0.971,0.335-1.091,0.849-0.267l64.414,103.292
				c0.514,0.824,1.686,1.402,2.657,1.402H124"/>
		</g>
		<g>
			<path fill="none" stroke="#F15A24" stroke-width="4" stroke-linecap="round" stroke-linejoin="round" stroke-miterlimit="10" d="
				M58,123v78.427c0,0.971,0.452,1.573,1.423,1.573H75"/>
		</g>
		<g>
			
				<line fill="none" stroke="#F15A24" stroke-width="4" stroke-linecap="round" stroke-linejoin="round" stroke-miterlimit="10" x1="66" y1="145" x2="66" y2="194"/>
		</g>
		<g>
			
				<line fill="none" stroke="#F15A24" stroke-width="4" stroke-linecap="round" stroke-linejoin="round" stroke-miterlimit="10" x1="122.475" y1="193.924" x2="68.767" y2="105.637"/>
		</g>
		<g>
			<path fill="none" stroke="#F15A24" stroke-width="4" stroke-linecap="round" stroke-linejoin="round" stroke-miterlimit="10" d="
				M150,97h-6.704c-0.971,0-1.296,1.043-1.296,2.014v101.971c0,0.971-0.657,1.093-1.172,0.27L76.48,98.62
				C75.965,97.798,74.631,97,73.66,97H66"/>
		</g>
		<g>
			<path fill="none" stroke="#F15A24" stroke-width="4" stroke-linecap="round" stroke-linejoin="round" stroke-miterlimit="10" d="
				M133,176V99.014c0-0.971-1.093-2.014-2.064-2.014H115"/>
		</g>
		<g>
			
				<line fill="none" stroke="#F15A24" stroke-width="4" stroke-linecap="round" stroke-linejoin="round" stroke-miterlimit="10" x1="124" y1="154" x2="124" y2="106"/>
		</g>
	</g>

	<g id="Y">
		<g>
			<path fill="none" stroke="#F15A24" stroke-width="4" stroke-linecap="round" stroke-linejoin="round" stroke-miterlimit="10" d="
				M228.459,138.344l16.527-39.652c0.374-0.896-0.112-1.691-1.083-1.691H228"/>
		</g>
		<g>
			<path fill="none" stroke="#F15A24" stroke-width="4" stroke-linecap="round" stroke-linejoin="round" stroke-miterlimit="10" d="
				M219,203h-15.6c-0.971,0-1.46-0.857-1.087-1.754l16.206-38.983c0.373-0.896,0.271-2.343-0.228-3.177l-36.056-60.431
				c-0.499-0.833-0.112-1.655,0.859-1.655H199"/>
		</g>
		<g>
			
				<line fill="none" stroke="#F15A24" stroke-width="4" stroke-linecap="round" stroke-linejoin="round" stroke-miterlimit="10" x1="223.005" y1="125.108" x2="231.133" y2="105.635"/>
		</g>
		<g>
			<path fill="none" stroke="#F15A24" stroke-width="4" stroke-linecap="round" stroke-linejoin="round" stroke-miterlimit="10" d="
				M216.356,193.923l13.24-31.723c0.374-0.896,0.271-2.312-0.228-3.145l-31.981-53.419"/>
		</g>
		<g>
			<path fill="none" stroke="#F15A24" stroke-width="4" stroke-linecap="round" stroke-linejoin="round" stroke-miterlimit="10" d="
				M266,97h-7.529c-0.971,0-2.071,0.857-2.445,1.754l-21.784,52.691"/>
		</g>
		<g>
			<path fill="none" stroke="#F15A24" stroke-width="4" stroke-linecap="round" stroke-linejoin="round" stroke-miterlimit="10" d="
				M182,203h6.724c0.971,0,1.791,0,1.821,0c0.03,0,0.361-0.857,0.735-1.754l16.246-38.981c0.374-0.896,0.271-2.343-0.228-3.176
				l-36.098-60.434c-0.499-0.833-0.932-1.655-0.962-1.655s-0.85,0-1.821,0H161"/>
		</g>
	</g>

	<g id="C">
		<path fill="none" stroke="#F15A24" stroke-width="4" stroke-linecap="round" stroke-linejoin="round" stroke-miterlimit="10" d="
			M340.867,179.029c-5.708,3.963-12.641,6.285-20.115,6.285c-19.504,0-35.314-15.81-35.314-35.314s15.811-35.315,35.314-35.315
			c7.313,0,14.108,2.224,19.745,6.031"/>
		<g>
			<path fill="none" stroke="#F15A24" stroke-width="4" stroke-linecap="round" stroke-linejoin="round" stroke-miterlimit="10" d="
				M360,97.249l-7.578,18.155c-0.374,0.896-1.234,1.061-1.912,0.365c0,0-10.742-11.015-29.758-11.015
				c-24.989,0-45.247,20.257-45.247,45.247c0,24.989,20.258,45.248,45.247,45.248c19.016,0,29.469-10.743,29.469-10.743
				c0.678-0.696,1.537-0.532,1.911,0.364L360,203.723"/>
		</g>
		<g>
			<path fill="none" stroke="#F15A24" stroke-width="4" stroke-linecap="round" stroke-linejoin="round" stroke-miterlimit="10" d="
				M351.171,97.249l-1.536,3.684c-0.374,0.896-1.359,1.218-2.189,0.713c0,0-11.243-6.826-26.693-6.826
				c-30.475,0-55.18,24.705-55.18,55.18c0,30.475,24.705,55.18,55.18,55.18c13.685,0,26.318-6.721,26.318-6.721
				c0.857-0.456,1.864-0.096,2.238,0.801l1.862,4.463"/>
		</g>
	</g>
</g>
</svg>
