<?xml version="1.0" encoding="utf-8"?>
<?xml-stylesheet type="text/css" href="h.css"?>
<!-- Generator: Adobe Illustrator 16.0.4, SVG Export Plug-In . SVG Version: 6.00 Build 0)  -->
<!DOCTYPE svg PUBLIC "-//W3C//DTD SVG 1.1//EN" "http://www.w3.org/Graphics/SVG/1.1/DTD/svg11.dtd">
<svg version="1.1" id="H" xmlns="http://www.w3.org/2000/svg" xmlns:xlink="http://www.w3.org/1999/xlink" x="0px" y="0px"
	 width="207px" height="262px" viewBox="196 94 207 262" enable-background="new 196 94 207 262" xml:space="preserve">
<g id="middleLeft">
	<path fill="none" stroke="#63E363" stroke-width="3" stroke-miterlimit="10" d="M196,96.5h21c2.2,0,3.5,1.8,3.5,4V343"/>
</g>
<g id="middleRight">
	<path fill="none" stroke="#63E363" stroke-width="3" stroke-miterlimit="10" d="M403,354.5h-22c-2.2,0-4.5-1.8-4.5-4V106"/>
</g>
<g id="outerLeft">
	<path fill="none" stroke="#63E363" stroke-width="3" stroke-miterlimit="10" d="M206.5,107v243.5c0,2.2,2.3,4,4.5,4h40"/>
</g>
<g id="outerRight">
	<path fill="none" stroke="#63E363" stroke-width="3" stroke-miterlimit="10" d="M390.5,341V99.5c0-2.2-1.3-4-3.5-4h-39"/>
</g>
<g id="innerTopRight">
	<path fill="none" stroke="#63E363" stroke-width="3" stroke-miterlimit="10" d="M233.5,135v-34.5c0-2.2,2.3-4,4.5-4h13"/>
</g>
<g id="innerBottomRight">
	<path fill="none" stroke="#63E363" stroke-width="3" stroke-miterlimit="10" d="M363.5,255v95.5c0,2.2-1.3,4-3.5,4h-12"/>
</g>
<g id="middleStemTop">
	<path fill="none" stroke="#63E363" stroke-width="3" stroke-miterlimit="10" d="M233.5,162v12.5c0,2.2,2.3,4,4.5,4h121
		c2.2,0,3.5-1.8,3.5-4V106"/>
</g>
<g id="middleStemBottom">
	<path fill="none" stroke="#63E363" stroke-width="3" stroke-miterlimit="10" d="M362.5,221v-10.5c0-2.2-1.3-4-3.5-4H238
		c-2.2,0-4.5,1.8-4.5,4V343"/>
</g>
<g id="middleStemMiddle">
	<line fill="none" stroke="#63E363" stroke-width="3" stroke-miterlimit="10" x1="246" y1="192.5" x2="353" y2="192.5"/>
</g>
</svg>
